<?xml version="1.0" standalone="no"?>
<!DOCTYPE svg PUBLIC "-//W3C//DTD SVG 20010904//EN"
 "http://www.w3.org/TR/2001/REC-SVG-20010904/DTD/svg10.dtd">
<svg version="1.0" xmlns="http://www.w3.org/2000/svg"
 width="70.000000pt" height="70.000000pt" viewBox="0 0 70.000000 70.000000"
 preserveAspectRatio="xMidYMid meet">
<metadata>
Created by potrace 1.11, written by Peter Selinger 2001-2013
</metadata>
<g transform="translate(0.000000,70.000000) scale(0.100000,-0.100000)"
fill="#000000" stroke="none">
<path d="M0 350 l0 -350 350 0 350 0 0 350 0 350 -350 0 -350 0 0 -350z m124
240 c33 -12 36 -50 5 -50 -12 0 -27 -7 -34 -17 -11 -14 -13 -13 -19 12 -4 15
-5 30 -1 33 3 3 5 -2 5 -11 0 -22 19 -22 27 -1 4 11 8 12 13 4 5 -8 10 -9 14
-2 4 6 -6 18 -21 26 -32 17 -26 21 11 6z m448 -102 c0 -34 -10 -73 -26 -110
-21 -48 -23 -56 -8 -51 12 5 9 -3 -10 -27 l-26 -34 30 -28 c40 -37 31 -45 -21
-19 -40 21 -60 27 -48 14 4 -3 2 -12 -4 -20 -9 -10 -6 -13 12 -14 19 0 15 -4
-18 -19 -39 -17 -60 -50 -32 -50 5 0 7 -5 4 -10 -11 -17 -37 -11 -42 10 -5 17
-14 20 -65 20 -37 0 -57 -4 -53 -10 3 -6 -1 -10 -9 -10 -9 0 -16 4 -16 9 0 13
-35 20 -54 9 -12 -7 -16 -5 -16 8 0 9 -11 25 -24 35 -33 26 -76 105 -76 141 0
61 54 129 133 170 57 29 158 36 192 14 14 -9 30 -14 35 -11 18 11 11 -51 -7
-67 -56 -48 -118 -62 -78 -18 18 20 17 20 -12 20 -19 0 -38 -9 -53 -25 -33
-36 -18 -59 41 -63 148 -11 263 112 207 222 -8 17 -5 16 17 -6 24 -22 28 -34
27 -80z m65 -163 c33 -5 43 -14 43 -39 0 -15 -10 -30 -27 -41 -16 -10 -41 -29
-57 -44 -27 -25 -28 -25 -22 -4 4 13 4 28 -1 35 -4 7 -8 18 -8 23 -1 6 -5 18
-9 28 -11 23 21 60 43 51 9 -3 26 -8 38 -9z m-513 -144 c13 -14 15 -24 8 -38
-6 -10 -14 -28 -18 -41 -9 -22 -9 -22 -44 -5 -44 23 -53 59 -17 72 14 6 28 15
32 20 9 16 20 14 39 -8z m249 -66 c3 -13 -29 -19 -51 -10 -15 6 -15 8 3 15 24
11 45 8 48 -5z"/>
<path d="M420 200 c0 -5 5 -10 10 -10 6 0 10 5 10 10 0 6 -4 10 -10 10 -5 0
-10 -4 -10 -10z"/>
<path d="M582 308 c-15 -15 -16 -28 -2 -28 6 0 10 8 10 17 0 13 3 14 12 5 9
-9 8 -17 -2 -37 -19 -35 -7 -41 29 -14 37 27 40 49 8 49 -13 0 -27 5 -33 10
-7 7 -14 6 -22 -2z"/>
<path d="M68 163 c-35 -18 -35 -28 -2 -49 22 -15 27 -15 34 -3 6 9 4 17 -5 22
-23 12 -18 29 6 22 15 -5 20 -3 17 6 -6 18 -19 19 -50 2z"/>
</g>
</svg>
